<?xml version="1.0" encoding="utf-8"?>
<!-- Generator: Adobe Illustrator 22.0.0, SVG Export Plug-In . SVG Version: 6.00 Build 0)  -->
<svg version="1.1" id="Calque_1" xmlns="http://www.w3.org/2000/svg" xmlns:xlink="http://www.w3.org/1999/xlink" x="0px" y="0px"
	 viewBox="0 0 70.6 77.2" style="enable-background:new 0 0 70.6 77.2;" xml:space="preserve">
<style type="text/css">
	.st0{fill:#00A666;}
</style>
<title>Fichier 1</title>
<path class="st0" d="M0.6,0v19.9h1C2.9,15,9.8,2.4,14.5,1.8c2.4-0.3,6-0.4,8.5-0.4h4.8v13.3l0,0c0,1.1,0.5,2,1.3,2.7
	c-0.8,0.6-1.3,1.6-1.3,2.7s0.5,2,1.3,2.7c-0.8,0.6-1.3,1.6-1.3,2.7c0,0.1,0,0.3,0,0.4l1.3,30.2c0,0.7,0.6,1.3,1.3,1.3
	c-1.5,0-2.7,2.4-2.7,5.3c0,6.6,0.1,8.3-1.3,9.9c-0.5,0.6-1.2,1-2.1,1.4c-1.4,0.6-7,1.1-9,1.2V76c0,0,13.8,3.6,20.5-0.7
	c4-2.5,6.7-5.6,6.7-11.3c0-3.7-1.2-6.6-2.7-6.6c0.7,0,1.3-0.6,1.3-1.3l1.3-30.2c0-0.1,0-0.3,0-0.4c0-1.1-0.5-2-1.3-2.7
	c0.8-0.6,1.3-1.6,1.3-2.7s-0.5-2-1.3-2.7c0.8-0.6,1.3-1.6,1.3-2.7l0,0V1.4h4.9c2.8,0,6,0.1,8.5,0.4c5,0.6,11.8,13.2,13.1,18.1h1V0
	H0.6z M30.5,4c1.4-1.5,4-1.3,4-1.3V10h-4V4z M34.2,68.7c-2.1,3.1-5,4.4-5,4.4s1.3-1.3,1.3-5.3v-4c0-2.7,1.2-4,2.7-4s2.7,0.8,2.7,4
	C35.9,65.6,35.5,66.7,34.2,68.7z M35.9,24.6c-0.7,0-1.3,0.6-1.3,1.3v28.6c0,0.7-0.6,1.3-1.3,1.3h-0.7c-0.7,0-1.3-0.6-1.3-1.3
	l-0.7-27.9c0-0.7-0.6-1.3-1.3-1.3c0-0.7,0.6-1.3,1.3-1.3H36c0.2,0,0.3,0.1,0.3,0.3C36.2,24.4,36.1,24.6,35.9,24.6z M35.9,18.6
	c-0.7,0-1.3,0.6-1.3,1.3l0,0v0.7c0,0.4-0.3,0.7-0.7,0.7h-2.7c-0.4,0-0.7-0.3-0.7-0.7c0-0.7-0.6-1.3-1.3-1.3c0-0.7,0.6-1.3,1.3-1.3
	h5.4c0.2,0,0.3,0.1,0.3,0.3S36.1,18.6,35.9,18.6z M35.9,12.6c-0.7,0-1.3,0.6-1.3,1.3v1.3c0,0.4-0.3,0.7-0.7,0.7h-2.7
	c-0.4,0-0.7-0.3-0.7-0.7v-0.7c0-0.7-0.6-1.3-1.3-1.3c0-0.7,0.6-1.3,1.3-1.3h5.4c0.2,0,0.3,0.1,0.3,0.3
	C36.2,12.5,36.1,12.6,35.9,12.6z"/>
</svg>
