<?xml version="1.0" encoding="utf-8"?>
<!-- Generator: Adobe Illustrator 22.0.0, SVG Export Plug-In . SVG Version: 6.00 Build 0)  -->
<svg version="1.1" id="Calque_1" xmlns="http://www.w3.org/2000/svg" xmlns:xlink="http://www.w3.org/1999/xlink" x="0px" y="0px"
	 viewBox="0 0 70.6 84.7" style="enable-background:new 0 0 70.6 84.7;" xml:space="preserve">
<style type="text/css">
	.st0{fill:#2FB312;}
</style>
<title>Fichier 1</title>
<g>
	<g>
		<path class="st0" d="M21.8,7.6H0v20.2h1c1.4-5,8.4-17.7,13.2-18.4c2.3-0.3,5.4-0.4,7.9-0.4L21.8,7.6z"/>
		<path class="st0" d="M26.6,7.6L27,8.9h0.8h4.1h0c0.7,0,1.4-0.6,1.4-1.4H26.6z"/>
	</g>
	<g>
		<path class="st0" d="M44,7.6h-6.7c0,0.7,0.6,1.4,1.4,1.4h0h4.1h0.8L44,7.6z"/>
		<path class="st0" d="M48.8,7.6l-0.4,1.4c2.7,0,5.7,0.1,8.1,0.4c4.9,0.7,11.7,13.4,13.1,18.4h1V7.6H48.8z"/>
	</g>
	<path class="st0" d="M33.3,63.1c-4.3-4.3-7.1-9.5-8.4-15.1c-0.1-0.3-0.3-0.5-0.7-0.5c-0.4,0-0.8,0.4-0.7,0.8
		c1,4.2,2.8,8.2,5.4,11.7c0.2,0.2,0.3,0.5,0.3,0.8l0,1.6c0,0.6,0.2,1.2,0.5,1.7c1,1.5,2.2,2.9,3.6,4.3l0,0c0.5,0.5,1.3,0.1,1.3-0.6
		v-3.2c0-0.2-0.1-0.4-0.3-0.6C34,63.8,33.6,63.5,33.3,63.1z"/>
	<path class="st0" d="M33.3,55c-4.3-4.3-7.1-9.5-8.4-15.1c-0.1-0.3-0.3-0.5-0.7-0.5c-0.4,0-0.8,0.4-0.7,0.8c1,4.2,2.8,8.2,5.4,11.7
		c0.2,0.2,0.3,0.5,0.3,0.8l0,1.6c0,0.6,0.2,1.2,0.5,1.7c1,1.5,2.2,2.9,3.6,4.3l0,0c0.5,0.5,1.3,0.1,1.3-0.6v-3.2
		c0-0.2-0.1-0.4-0.3-0.6C34,55.7,33.6,55.3,33.3,55z"/>
	<path class="st0" d="M33.3,46.9c-4.3-4.3-7.1-9.5-8.4-15.1c-0.1-0.3-0.3-0.5-0.7-0.5c-0.4,0-0.8,0.4-0.7,0.8
		c1,4.2,2.8,8.2,5.4,11.7c0.2,0.2,0.3,0.5,0.3,0.8l0,1.6c0,0.6,0.2,1.2,0.5,1.7c1,1.5,2.2,2.9,3.6,4.3l0,0c0.5,0.5,1.3,0.1,1.3-0.6
		v-3.2c0-0.2-0.1-0.4-0.3-0.6C34,47.6,33.6,47.2,33.3,46.9z"/>
	<path class="st0" d="M33.3,38.8c-4.3-4.3-7.1-9.5-8.4-15.1c-0.1-0.3-0.3-0.5-0.7-0.5c-0.4,0-0.8,0.4-0.7,0.8
		c1,4.2,2.8,8.2,5.4,11.7c0.2,0.2,0.3,0.5,0.3,0.8l0,1.6c0,0.6,0.2,1.2,0.5,1.7c1,1.5,2.2,2.9,3.6,4.3l0,0c0.5,0.5,1.3,0.1,1.3-0.6
		v-3.2c0-0.2-0.1-0.4-0.3-0.6C34,39.5,33.6,39.1,33.3,38.8z"/>
	<path class="st0" d="M33.3,30.6c-4.3-4.3-7.1-9.5-8.4-15.1c-0.1-0.3-0.3-0.5-0.7-0.5c-0.4,0-0.8,0.4-0.7,0.8
		c1,4.2,2.8,8.2,5.4,11.7c0.2,0.2,0.3,0.5,0.3,0.8l0,1.6c0,0.6,0.2,1.2,0.5,1.7c1,1.5,2.2,2.9,3.6,4.3l0,0c0.5,0.5,1.3,0.1,1.3-0.6
		v-3.2c0-0.2-0.1-0.4-0.3-0.6C34,31.3,33.6,31,33.3,30.6z"/>
	<path class="st0" d="M33.3,22.5C29,18.2,26.2,13,24.8,7.5c-0.1-0.3-0.3-0.5-0.7-0.5c-0.4,0-0.8,0.4-0.7,0.8c1,4.2,2.8,8.2,5.4,11.7
		c0.2,0.2,0.3,0.5,0.3,0.8l0,1.6c0,0.6,0.2,1.2,0.5,1.7c1,1.5,2.2,2.9,3.6,4.3l0,0c0.5,0.5,1.3,0.1,1.3-0.6v-3.2
		c0-0.2-0.1-0.4-0.3-0.6C34,23.2,33.6,22.9,33.3,22.5z"/>
	<path class="st0" d="M37.3,63.1c4.3-4.3,7.1-9.5,8.4-15.1c0.1-0.3,0.3-0.5,0.7-0.5c0.4,0,0.8,0.4,0.7,0.8c-1,4.2-2.8,8.2-5.4,11.7
		c-0.2,0.2-0.3,0.5-0.3,0.8l0,1.6c0,0.6-0.2,1.2-0.5,1.7c-1,1.5-2.2,2.9-3.6,4.3l0,0C36.8,69,36,68.7,36,68v-3.2
		c0-0.2,0.1-0.4,0.3-0.6C36.6,63.8,37,63.5,37.3,63.1z"/>
	<path class="st0" d="M37.3,55c4.3-4.3,7.1-9.5,8.4-15.1c0.1-0.3,0.3-0.5,0.7-0.5c0.4,0,0.8,0.4,0.7,0.8c-1,4.2-2.8,8.2-5.4,11.7
		c-0.2,0.2-0.3,0.5-0.3,0.8l0,1.6c0,0.6-0.2,1.2-0.5,1.7c-1,1.5-2.2,2.9-3.6,4.3l0,0c-0.5,0.5-1.3,0.1-1.3-0.6v-3.2
		c0-0.2,0.1-0.4,0.3-0.6C36.6,55.7,37,55.3,37.3,55z"/>
	<path class="st0" d="M37.3,46.9c4.3-4.3,7.1-9.5,8.4-15.1c0.1-0.3,0.3-0.5,0.7-0.5c0.4,0,0.8,0.4,0.7,0.8c-1,4.2-2.8,8.2-5.4,11.7
		c-0.2,0.2-0.3,0.5-0.3,0.8l0,1.6c0,0.6-0.2,1.2-0.5,1.7c-1,1.5-2.2,2.9-3.6,4.3l0,0c-0.5,0.5-1.3,0.1-1.3-0.6v-3.2
		c0-0.2,0.1-0.4,0.3-0.6C36.6,47.6,37,47.2,37.3,46.9z"/>
	<path class="st0" d="M37.3,38.8c4.3-4.3,7.1-9.5,8.4-15.1c0.1-0.3,0.3-0.5,0.7-0.5c0.4,0,0.8,0.4,0.7,0.8c-1,4.2-2.8,8.2-5.4,11.7
		c-0.2,0.2-0.3,0.5-0.3,0.8l0,1.6c0,0.6-0.2,1.2-0.5,1.7c-1,1.5-2.2,2.9-3.6,4.3l0,0c-0.5,0.5-1.3,0.1-1.3-0.6v-3.2
		c0-0.2,0.1-0.4,0.3-0.6C36.6,39.5,37,39.1,37.3,38.8z"/>
	<path class="st0" d="M37.3,30.6c4.3-4.3,7.1-9.5,8.4-15.1c0.1-0.3,0.3-0.5,0.7-0.5c0.4,0,0.8,0.4,0.7,0.8c-1,4.2-2.8,8.2-5.4,11.7
		c-0.2,0.2-0.3,0.5-0.3,0.8l0,1.6c0,0.6-0.2,1.2-0.5,1.7c-1,1.5-2.2,2.9-3.6,4.3l0,0c-0.5,0.5-1.3,0.1-1.3-0.6v-3.2
		c0-0.2,0.1-0.4,0.3-0.6C36.6,31.3,37,31,37.3,30.6z"/>
	<path class="st0" d="M37.3,22.5c4.3-4.3,7.1-9.5,8.4-15.1c0.1-0.3,0.3-0.5,0.7-0.5c0.4,0,0.8,0.4,0.7,0.8c-1,4.2-2.8,8.2-5.4,11.7
		c-0.2,0.2-0.3,0.5-0.3,0.8l0,1.6c0,0.6-0.2,1.2-0.5,1.7c-1,1.5-2.2,2.9-3.6,4.3l0,0c-0.5,0.5-1.3,0.1-1.3-0.6v-3.2
		c0-0.2,0.1-0.4,0.3-0.6C36.6,23.2,37,22.9,37.3,22.5z"/>
	<path class="st0" d="M27.8,77c0,2.5-0.8,4.6-3.5,5.6c-1.5,0.6-7.1,1.1-9.1,1.2v0.8h40.3v-0.8c-2-0.1-7.8-0.9-9.1-1.5
		c-2.6-1.1-3.5-3.2-3.5-5.6l0-8.7c0-0.6-0.3-1.2-0.9-1.6l0,0c-0.3-0.2-0.7-0.1-0.9,0.2c-1.1,1.6-2.4,3.1-3.8,4.5
		c-0.4,0.4-0.7,0.7-1.1,1c-0.2,0.2-0.6,0.4-0.9,0.4s-0.8-0.3-0.9-0.4c-0.4-0.3-0.7-0.7-1.1-1c-1.4-1.4-2.7-2.9-3.8-4.5
		c-0.2-0.3-0.6-0.4-0.8-0.2l0,0c-0.5,0.4-0.9,0.9-0.9,1.6V77z"/>
	<path class="st0" d="M36,11.6C36,11.6,36,11.6,36,11.6l0-11C36,0.3,35.7,0,35.3,0l0,0c-0.4,0-0.7,0.3-0.7,0.7v11c0,0,0,0,0,0
		l-1.1,1.1c-0.6,0.6-1,1.4-1.1,2.2l-0.3,2.7c-0.2,0.4,0,0.9,0.3,1.3l1.7,1.7c0.3,0.3,0.7,0.5,1.2,0.5h0c0.4,0,0.8-0.2,1.2-0.5
		l1.7-1.7c0.3-0.3,0.4-0.8,0.3-1.3l-0.3-2.7c-0.1-0.8-0.5-1.6-1.1-2.2L36,11.6z"/>
</g>
</svg>
