<?xml version="1.0" encoding="utf-8"?>
<!-- Generator: Adobe Illustrator 22.0.1, SVG Export Plug-In . SVG Version: 6.00 Build 0)  -->
<svg version="1.1" id="Calque_1" xmlns="http://www.w3.org/2000/svg" xmlns:xlink="http://www.w3.org/1999/xlink" x="0px" y="0px"
	 viewBox="0 0 70.6 77.2" style="enable-background:new 0 0 70.6 77.2;" xml:space="preserve">
<style type="text/css">
	.st0{fill:#D22E65;}
</style>
<g>
	<g>
		<path class="st0" d="M0,0v20.2h1c1.4-5,8.4-17.7,13.2-18.4c2.5-0.3,6.1-0.5,8.7-0.5h4.9v20.5c-3.3,2.3-5.4,6.2-5.4,10.5
			c0,4.3,2.1,8.2,5.4,10.5v20.4c0,8.7-0.8,10.8-3.5,11.8c-1.5,0.6-7.1,1.1-9.2,1.2v0.8h40.3v-0.8c-2-0.1-7.8-0.9-9.1-1.5
			c-2.6-1.1-3.5-3.2-3.5-11.8V42.9c3.3-2.3,5.4-6.2,5.4-10.5c0-3.1-1.1-5.9-2.9-8.1l4.1-4.1v2.7h2.7v-7.3h-7.3v2.7h2.7l-4.1,4.1
			c-0.2-0.2-0.4-0.3-0.6-0.5V1.4h5c2.8,0,6.1,0.1,8.7,0.5c4.9,0.7,11.7,13.4,13.1,18.4h1V0H0z M45.5,32.4c0,5.2-3.9,9.4-8.8,10.1V46
			h2.7v2.7h-2.7v2.7h-2.7v-2.7h-2.7V46h2.7v-3.5c-5-0.7-8.8-4.9-8.8-10.1c0-2.7,1-5.1,2.7-6.9v6.9c0,4.1,3.4,7.5,7.5,7.5
			c4.1,0,7.5-3.4,7.5-7.5v-6.9C44.5,27.3,45.5,29.7,45.5,32.4z"/>
	</g>
</g>
</svg>
