<?xml version="1.0" encoding="utf-8"?>
<!-- Generator: Adobe Illustrator 22.0.0, SVG Export Plug-In . SVG Version: 6.00 Build 0)  -->
<svg version="1.1" id="Calque_1" xmlns="http://www.w3.org/2000/svg" xmlns:xlink="http://www.w3.org/1999/xlink" x="0px" y="0px"
	 viewBox="0 0 70.6 77.2" style="enable-background:new 0 0 70.6 77.2;" xml:space="preserve">
<style type="text/css">
	.st0{fill:#930025;}
</style>
<title>Fichier 1</title>
<g>
	<path class="st0" d="M0,0v20.2h1c1.4-5,8.4-17.7,13.2-18.4c2.5-0.3,6.1-0.5,8.7-0.5h4.9v58.3c0,0.8,0.1,1.6,0.4,2.4l5.1,13.1
		c0.4,1.2,0.8,1.9,2,1.9c1.2,0,1.7-0.8,2-1.9L42.4,62c0.3-0.8,0.4-1.6,0.4-2.4V1.4h5c2.8,0,6.1,0.1,8.7,0.5
		c4.9,0.7,11.7,13.4,13.1,18.4h1V0H0z M29.2,7.4l5.5-4.1v51.4l-5.5,4.1V7.4z M37.4,70.3L36.9,70c-1-0.6-2.2-0.6-3.2,0l-0.5,0.3
		l-4.1-9.4l6.1-4.8l6.1,4.8L37.4,70.3z M41.5,58.8L36,54.8V3.4l5.5,4.1V58.8z"/>
</g>
</svg>
