<?xml version="1.0" encoding="utf-8"?>
<!-- Generator: Adobe Illustrator 22.0.0, SVG Export Plug-In . SVG Version: 6.00 Build 0)  -->
<svg version="1.1" id="Calque_1" xmlns="http://www.w3.org/2000/svg" xmlns:xlink="http://www.w3.org/1999/xlink" x="0px" y="0px"
	 viewBox="0 0 70.6 77.2" style="enable-background:new 0 0 70.6 77.2;" xml:space="preserve">
<style type="text/css">
	.st0{fill:#004DA6;}
</style>
<title>Fichier 1</title>
<g>
	<path class="st0" d="M42.8,69.2c0,2.5,0.9,4.5,3.5,5.6c1.4,0.6,7.1,1.4,9.1,1.5v0.8H15.1v-0.8c2-0.1,7.7-0.7,9.2-1.2
		c2.7-1,3.5-3.2,3.5-5.6l0-9.9c0-2,0.2-3,1.4-4.1c1.6-1.5,3.5-3.5,6.8-6.8c2.3-2.3,9.6-9.5,9.6-9.5c0.6-0.6,0.9-1.4,0-2.7l-2.1-3.4
		c0,0,2.8-1.6,2.8-2s-1.4-1.4-1.4-1.4s0.2,0.7-0.7,1.4c-0.3,0.2-1.3,0.7-2.7,0C39,30,37.1,25.8,38.1,25c0.6-0.5,2,0,4.7,0.7
		c2.7,0.7,3.5,0.7,4.6,4.1c1.1,3.4,2.2,8.5,2.2,10.2c0,1.2,0,3.2-1.4,4.7c0,0-2.6,3.3-4.1,5.4c-0.7,1.1-1.4,1.9-1.4,3.3L42.8,69.2z"
		/>
	<path class="st0" d="M21.4,36.1l0.9-0.9c3.2,0.9,4.1-2.7,4.1-2.7s1.7,0.3,2.7-0.7c1.1-1,0.7-2.7,0.7-2.7s2.6-0.7,2.6-3.4
		c0-2.3-1.9-3.4-1.9-3.4s1.4-1.4,1.4-2.7c0-2.6-1.4-3.4-2.7-4.7c-1-1-1.4-1.4-1.4-4.1l0-9.5h-4.9c-2.6,0-6.2,0.1-8.7,0.5
		C9.4,2.5,2.4,15.2,1,20.2H0V0h70.6v20.2h-1c-1.4-5-8.2-17.7-13.1-18.4c-2.6-0.3-5.9-0.5-8.7-0.5h-5l0,23c0,0-2.1-0.6-3.3-0.9
		c-0.7-0.2-2.1-0.4-2.8,0.2c-1.2,1.2-0.9,4.5,2,7.4c1.4,1.4,2.1,2.1,3.4,3.4c0.8,0.8,1.4,2.8,1.4,3.4c0,0.8-1.5,2-2.1,2.6L29.1,52.8
		c-0.7,0.7-1.9,0.7-2.7,0c-0.8-0.8-0.8-2,0-2.7l7.5-7.4L33.3,42L27,48.2c-0.8,0.8-2,0.8-2.7,0c-0.8-0.8-0.8-1.9,0-2.7l5.6-5.5
		l-0.7-0.7l-3.5,3.5c-0.8,0.8-2,0.8-2.8,0s-0.7-2,0-2.7l3.5-3.5l-0.7-0.7l-2.3,2.3c-0.6,0.6-1.5,0.6-2,0
		C20.8,37.6,20.8,36.7,21.4,36.1z"/>
	<path class="st0" d="M24.2,24.2c-0.8-0.8-2-0.8-2.7,0c-0.8,0.8-0.8,2,0,2.7l3.6,3.6c0.8,0.8,2,0.8,2.7,0c0.8-0.8,0.8-2,0-2.7
		L24.2,24.2z"/>
	<path class="st0" d="M27.9,26.5l-3.7-3.6c-0.8-0.8-0.7-1.9,0-2.7c0.8-0.8,2-0.7,2.7,0l3.6,3.6c0.8,0.8,0.8,2,0,2.7
		C29.9,27.3,28.6,27.2,27.9,26.5z"/>
	<path class="st0" d="M28,19.9c0.6,0.6,1.5,0.6,2.1,0c0.6-0.6,0.6-1.5,0-2l-1.6-1.6c-0.6-0.6-1.5-0.6-2,0c-0.6,0.6-0.6,1.5,0,2
		L28,19.9z"/>
	<path class="st0" d="M24.5,30.9L23.6,30c-0.6-0.6-1.5-0.5-2,0c-0.3,0.3-0.4,0.6-0.4,0.9v1.4c0,0.5,0.2,1,0.6,1.4
		c0.8,0.8,2,0.8,2.8,0C25.3,32.9,25.3,31.7,24.5,30.9z"/>
</g>
</svg>
