<?xml version="1.0" encoding="utf-8"?>
<!-- Generator: Adobe Illustrator 22.0.0, SVG Export Plug-In . SVG Version: 6.00 Build 0)  -->
<svg version="1.1" id="Calque_1" xmlns="http://www.w3.org/2000/svg" xmlns:xlink="http://www.w3.org/1999/xlink" x="0px" y="0px"
	 viewBox="0 0 141.2 132.9" style="enable-background:new 0 0 141.2 132.9;" xml:space="preserve">
<style type="text/css">
	.st0{fill:#FFFFFF;}
</style>
<g id="Calque_2_1_">
	<g id="GRAPHICS">
		<path class="st0" d="M106.1,49h-1c-1.4-5-8.2-17.7-13.1-18.4c-2.9-0.3-5.8-0.5-8.7-0.5h-5V98c-0.2,2.4,1.2,4.7,3.5,5.6
			c1.3,0.6,7.1,1.4,9.1,1.5v0.8H50.6v-0.8c2-0.1,7.7-0.7,9.2-1.2c2.7-1,3.5-3.2,3.5-5.7v-68h-4.9c-2.9,0-5.8,0.1-8.7,0.4
			C44.9,31.3,37.9,44,36.5,49h-1V28.8h70.6V49z"/>
	</g>
</g>
</svg>
