<?xml version="1.0" encoding="utf-8"?>
<!-- Generator: Adobe Illustrator 22.0.0, SVG Export Plug-In . SVG Version: 6.00 Build 0)  -->
<svg version="1.1" id="Calque_1" xmlns="http://www.w3.org/2000/svg" xmlns:xlink="http://www.w3.org/1999/xlink" x="0px" y="0px"
	 viewBox="0 0 70.6 77.2" style="enable-background:new 0 0 70.6 77.2;" xml:space="preserve">
<style type="text/css">
	.st0{fill:#A400B3;}
</style>
<title>Fichier 1</title>
<g>
	<path class="st0" d="M0,0v20.2h1c1.4-5,8.4-17.7,13.2-18.4c2.5-0.3,6.1-0.5,8.7-0.5h2.8v0c-2.6,0-4.8,2.1-4.8,4.7s2.1,4.7,4.8,4.7
		c0.7,0,1.4-0.2,2.1-0.5v58c-0.8,0-1.4,0.6-1.4,1.4c0,0.4,0.2,0.8,0.5,1c-0.3,0.2-0.5,0.6-0.5,1c0,0.5,0.2,0.9,0.6,1.1
		c-0.5,1-1.4,1.7-2.7,2.2c-1.5,0.6-7.1,1.1-9.1,1.2v0.8h40.3v-0.8c-2-0.1-7.8-0.9-9.1-1.5c-1.2-0.5-2-1.2-2.6-2.1
		c0.3-0.2,0.5-0.6,0.5-1c0-0.4-0.2-0.8-0.5-1c0.3-0.2,0.5-0.6,0.5-1c0-0.7-0.6-1.4-1.4-1.4c0,0,0,0,0,0v-58c0.6,0.3,1.3,0.5,2.1,0.5
		c2.6,0,4.8-2.1,4.8-4.7s-2.1-4.7-4.8-4.7v0h2.9c2.8,0,6.1,0.1,8.7,0.5c4.9,0.7,11.7,13.4,13.1,18.4h1V0H0z M34.6,64.9
		c0,1.5-1.2,2.7-2.7,2.7c-1.5,0-2.7-1.2-2.7-2.7V8.1c0-1.5,1.2-2.7,2.7-2.7c1.5,0,2.7,1.2,2.7,2.7V64.9z M41.4,64.9
		c0,1.5-1.2,2.7-2.7,2.7c-1.5,0-2.7-1.2-2.7-2.7V8.1c0-1.5,1.2-2.7,2.7-2.7c1.5,0,2.7,1.2,2.7,2.7V64.9z M46.5,3.2
		c1.2,0.7,1.8,1.6,1.8,2.8c0,1-0.3,1.9-0.9,2.5c-0.6,0.6-1.4,0.9-2.2,0.9c0,0,0,0,0,0c-1.1,0-2.2-0.8-2.2-2c0-0.6,0.2-1.2,0.7-1.5
		c0.5-0.4,1-0.5,1.3-0.5c0.4,0,0.7,0.2,0.7,0.6c0,0.4-0.2,0.7-0.6,0.7c-0.3,0-0.4,0.1-0.6,0.2c-0.1,0.1-0.2,0.3-0.2,0.5
		c0,0.5,0.6,0.7,0.9,0.7c0.5,0,1-0.2,1.3-0.5c0.4-0.4,0.5-0.9,0.5-1.5c0-0.7-0.3-1.2-1.1-1.7c-0.6-0.3-2-0.3-2.9-0.3H27.7
		c-0.9,0-2.3,0-2.9,0.3c-0.8,0.4-1.1,1-1.1,1.7c0,0.7,0.2,1.2,0.5,1.5c0.3,0.3,0.8,0.5,1.3,0.5c0.3,0,0.9-0.2,0.9-0.7
		c0-0.2-0.1-0.4-0.2-0.5c-0.1-0.1-0.3-0.2-0.6-0.2C25.3,6.7,25,6.4,25,6c0-0.4,0.4-0.6,0.7-0.6c0.4,0,0.9,0.1,1.3,0.5
		c0.4,0.4,0.7,0.9,0.7,1.5c0,1.2-1.1,2-2.2,2c0,0,0,0,0,0c-0.9,0-1.7-0.3-2.2-0.9c-0.6-0.6-0.9-1.5-0.9-2.5c0-1.2,0.6-2.2,1.8-2.8
		c0.9-0.5,2.4-0.5,3.6-0.5h15.2C44.1,2.7,45.6,2.7,46.5,3.2z"/>
</g>
</svg>
