<?xml version="1.0" encoding="utf-8"?>
<!-- Generator: Adobe Illustrator 22.0.0, SVG Export Plug-In . SVG Version: 6.00 Build 0)  -->
<svg version="1.1" id="Calque_1" xmlns="http://www.w3.org/2000/svg" xmlns:xlink="http://www.w3.org/1999/xlink" x="0px" y="0px"
	 viewBox="0 0 163.3 24.1" style="enable-background:new 0 0 163.3 24.1;" xml:space="preserve">
<style type="text/css">
	.st0{fill:#930025;}
</style>
<g id="Page-1">
	<g id="logo">
		<path id="Fill-2" class="st0" d="M21,16.9l-0.4,6.9H0.7v-0.2c0.6,0,2-0.2,2.5-0.4c0.8-0.3,1-0.9,1-1.7V3.1c0-0.7-0.2-1.3-1-1.7
			C2.6,1.2,1.3,1,0.7,1V0.7h11.5V1c-0.6,0-1.8,0.1-2.4,0.3c-0.8,0.3-1,0.9-1,1.7v17.4c0,2.7,0.6,3,3.8,3c2.1,0,3.9-0.1,4.7-0.8
			c1-1.1,2.9-4.3,3.5-5.7H21"/>
		<path id="Fill-3" class="st0" d="M21.3,23.8v-0.2c0.8,0,2.1-0.2,2.5-0.4c0.8-0.3,1-0.8,1-1.6V3.1c0-0.7-0.2-1.4-1-1.7
			C23.3,1.2,22.1,1,21.3,1V0.7h19v5.6H40c-0.4-1.5-2.6-4.9-4.2-5.1c-0.8-0.1-2.1-0.2-3.2-0.2h-3.3v10.5h2.8c1.9,0,2.5-0.6,2.9-1
			c0.6-0.6,1.3-2.5,1.4-3.4h0.3v9.5h-0.3c-0.1-1-0.9-3.1-1.4-3.6c-0.4-0.5-1.1-1-2.9-1h-2.8v8.4c0,2.6,0.6,3,3.8,3
			c2.1,0,4.4,0,5.2-0.8c1.2-1.2,3-4.5,3.5-5.6h0.3l-0.4,6.7L21.3,23.8"/>
		<path id="Fill-4" class="st0" d="M71,6.8h-0.3c-0.4-1.5-2.5-5.3-3.9-5.5C66,1.2,65,1.2,64.2,1.2h-1.5v20.3c0,0.7,0.3,1.3,1,1.7
			c0.4,0.2,2.1,0.4,2.7,0.4v0.2h-12v-0.2c0.6,0,2.3-0.2,2.7-0.4c0.8-0.3,1-0.9,1-1.7V1.2h-1.4c-0.8,0-1.9,0-2.6,0.1
			c-1.4,0.2-3.5,4-3.9,5.5h-0.3v-6H71V6.8"/>
		<path id="Fill-5" class="st0" d="M71.7,23.8v-0.2c0.8,0,2.1-0.2,2.5-0.4c0.8-0.3,1-0.8,1-1.6V3.1c0-0.7-0.2-1.4-1-1.7
			C73.6,1.2,72.4,1,71.7,1V0.7h19v5.6h-0.3c-0.4-1.5-2.6-4.9-4.2-5.1c-0.8-0.1-2.1-0.2-3.2-0.2h-3.3v10.5h2.8c1.9,0,2.5-0.6,2.9-1
			c0.6-0.6,1.3-2.5,1.4-3.4h0.3v9.5h-0.3c-0.1-1-0.9-3.1-1.4-3.6c-0.4-0.5-1.1-1-2.9-1h-2.8v8.4c0,2.6,0.6,3,3.8,3
			c2.1,0,4.4,0,5.2-0.8c1.2-1.2,3-4.5,3.5-5.6h0.3l-0.4,6.7L71.7,23.8"/>
		<path id="Fill-6" class="st0" d="M123.2,23.8h-11.9v-0.2c0.6,0,2.3-0.2,2.8-0.4c0.8-0.4,1.1-0.9,1.1-1.7V2.6l-8.5,20.8h-0.6
			c-0.3-1-1.2-3.5-1.7-4.7L97.6,3.1v15.3c0,2.6,0.4,3.8,1.1,4.4c0.6,0.5,2.8,0.6,3.4,0.7v0.2h-9.2v-0.2c0.6-0.1,2.3-0.1,3.1-0.6
			c0.8-0.6,1.1-1.9,1.1-4.4V4.6c0-1.4-0.3-2.3-1-2.9C95.2,1.1,94,1,93.1,1V0.7h8.2l7.4,16.6l5.6-13.7c0.5-1.2,0.7-2.5,0.7-2.9h8.2V1
			c-0.6,0-1.9,0.2-2.5,0.4c-0.8,0.3-1,0.9-1,1.7v18.4c0,0.7,0.3,1.3,1,1.7c0.4,0.2,1.9,0.4,2.5,0.5L123.2,23.8"/>
		<path id="Fill-7" class="st0" d="M135.1,13.4H133v8.1c0,0.7,0.2,1.4,1,1.7c0.4,0.2,1.7,0.3,2.6,0.4v0.2H125v-0.2
			c0.6,0,2.1-0.2,2.5-0.4c0.8-0.3,1-0.9,1-1.7V3.1c0-0.7-0.2-1.4-1-1.7c-0.7-0.3-2-0.4-2.6-0.4V0.7h11.7c4.8,0,7.8,1.9,7.8,5.6
			C144.4,11.1,139.9,13.4,135.1,13.4L135.1,13.4L135.1,13.4z M134.8,1.2H133v11.8h1.2c4.3,0,5.2-3.5,5.2-5.8
			C139.4,4.2,138.4,1.2,134.8,1.2z"/>
		<path id="Fill-8" class="st0" d="M154.7,24.2c-3.4,0-5.7-1.1-6.8-1.8l-1.1,1.7h-0.3l-0.2-8.2h0.3c1.7,4.3,4.1,7.9,8,7.9
			c3.2,0,4.6-2.3,4.6-4.7c0-2-1.3-3.5-3.6-4.4c-1.7-0.7-3.1-1.1-4.6-1.8c-2.7-1.2-4-3.3-4-6.2c0-3.6,3-6.5,7.4-6.5
			c2.7,0,4.9,0.8,6,1.7l1-1.5h0.3l0.1,7.8h-0.3c-1.3-3.9-3.3-7.6-7.2-7.6c-2.1,0-3.9,1.6-3.9,4c0,2,1.1,3.3,3.4,4.4
			c1.5,0.7,3.2,1.1,4.5,1.7c2.8,1.2,4.6,2.8,4.6,6.3C162.9,21.2,159.5,24.2,154.7,24.2"/>
	</g>
</g>
</svg>
